<svg version="1.1" id="Layer_1" xmlns="http://www.w3.org/2000/svg" xmlns:xlink="http://www.w3.org/1999/xlink" x="0px" y="0px" width="512px" height="512px" viewBox="0 0 512 512" enable-background="new 0 0 512 512" xml:space="preserve">
<g>
	<g>
		<g>
			<path fill="#337180" d="M256,7.9C119,7.9,7.9,119,7.9,256C7.9,393,119,504.1,256,504.1c137,0,248.1-111.1,248.1-248.1
				C504.1,119,393,7.9,256,7.9z"></path>
		</g>
	</g>
	<g>
		<g>
			<g>
				<path fill="#42413A" d="M157.3,338.5c-0.1-0.5-0.3-0.9-0.7-1.1l-5.8-3.4c-0.1,0-0.2-0.1-0.3-0.1c-0.5-0.2-1.1-0.2-2.2-0.2
					c-1.1,0-2.6,0.1-4,0.2c-1.4,0.1-2.9,0.2-3.9,0.2c-1,0-1.3-0.1-1.3-0.1c-32.6-12.1-37.8-43.1-37.9-43.4c-0.1-0.6-0.5-1-1.1-1.2
					s-1.1,0-1.5,0.4c-0.7,0.8-17.2,18.9-20.5,36.7c-3.3,17.4,8.2,32.5,28.4,37.7c1.8,0.5,3.7,0.7,5.6,0.7
					c20.3,0,43.8-24.1,44.7-25.1C157.2,339.4,157.3,338.9,157.3,338.5z"></path>
			</g>
		</g>
		<g>
			<g>
				<polygon fill="#CE9905" points="363.9,303.2 376.4,281.1 258.9,281.1 272.8,301.7 249.3,303.2 249.3,354.5 395.1,354.5 
					395.1,303.2 				"></polygon>
			</g>
		</g>
		<g>
			<g>
				<rect x="224.8" y="303.2" fill="#E8B30A" width="177.5" height="51.3"></rect>
			</g>
		</g>
		<g>
			<g>
				<path fill="#E8B30A" d="M126.9,198.1l-20.1-49.6c-0.2-0.6-0.8-1-1.5-0.9c-0.6,0-1.2,0.5-1.4,1.1l-11,38c0,0.2-0.1,0.3-0.1,0.5
					l2.3,74.5l-17.1,31.3c-0.2,0.4-0.2,0.8-0.1,1.2c0.1,0.4,0.5,0.7,0.9,0.9l25.9,10.1c0.2,0.1,0.4,0.1,0.5,0.1
					c0.2,0,0.5-0.1,0.7-0.2c0.4-0.2,0.7-0.6,0.8-1l7.2-36l13-69.1C127.1,198.6,127,198.3,126.9,198.1z"></path>
			</g>
		</g>
		<g>
			<g>
				<g>
					<g>
						<path fill="#42413A" d="M389.3,130.8c-0.1-1.4-0.8-2.7-2-3.4c-9.5-6.1-22.2-9.2-37.9-9.2c-26,0-51.1,8.4-52.1,8.8
							c-1.2,0.4-2.2,1.4-2.7,2.6l-36.5,100.7c-0.5,1.5-0.2,3.1,0.8,4.3c0.8,1,2,1.5,3.3,1.5c0.3,0,0.5,0,0.8-0.1l17.3-3.1
							c1.6-0.3,2.9-1.4,3.3-3l26-83c5.3-1.6,20.1-5.6,35-5.6c9.3,0,17,1.6,22.7,4.6l1.7,65.7c0,1.3,0.6,2.4,1.6,3.2
							c1,0.8,2.2,1.1,3.5,0.9l15.5-2.8c2.1-0.4,3.6-2.3,3.5-4.5L389.3,130.8z"></path>
					</g>
				</g>
				<g>
					<g>
						<path fill="#3ADDD1" d="M374.4,141.9l-1.3-0.8c-7.1-4.6-16.7-6.9-28.5-6.9c-19.6,0-38.6,6.3-39.4,6.6l-1.4,0.5l-28.5,91
							l100.9-18.4L374.4,141.9z"></path>
					</g>
				</g>
				<g>
					<g>
						<path fill="#B0F1ED" d="M313,148.5c-11.5,19.5-16.5,51-16.5,51L340,141C328,141.5,316.2,143,313,148.5z"></path>
					</g>
				</g>
			</g>
			<g>
				<g>
					<polygon fill="#CE9905" points="373.4,211.5 279.5,228.6 277.6,234.8 373.5,217.3 					"></polygon>
				</g>
			</g>
		</g>
		<g>
			<g>
				<path fill="#E8B30A" d="M399.9,201.8c-0.4-0.3-0.8-0.4-1.3-0.3l-136.1,28.7l-59.9-35.7c-0.1-0.1-0.3-0.1-0.4-0.2L110,174.1
					c-0.5-0.1-1,0.1-1.4,0.4c-0.4,0.4-0.5,0.9-0.4,1.4l4.3,15.8c0.2,0.6,0.7,1,1.3,1.1l14.2,1.4l72.7,31.4l30,54.2
					c0.2,0.4,0.6,0.7,1.1,0.8l25.4,5.6c0.2,0.1,0.4,0.2,0.7,0.2h116.6c0.2,0,0.4,0,0.6-0.1l24.5-10.1c0.6-0.2,0.9-0.8,0.9-1.4v-71.9
					C400.4,202.5,400.2,202.1,399.9,201.8z"></path>
			</g>
		</g>
		<g>
			<g>
				<circle fill="#42413A" cx="225.8" cy="336.3" r="33.6"></circle>
			</g>
		</g>
		<g>
			<g>
				<circle fill="#8E8D7C" cx="225.8" cy="336.3" r="18.2"></circle>
			</g>
		</g>
		<g>
			<g>
				<circle fill="#42413A" cx="399.4" cy="336.3" r="33.6"></circle>
			</g>
		</g>
		<g>
			<g>
				<circle fill="#8E8D7C" cx="399.4" cy="336.3" r="18.2"></circle>
			</g>
		</g>
		<g>
			<g>
				<circle fill="#CC9805" cx="107.8" cy="186.3" r="6"></circle>
			</g>
		</g>
		<g>
			<g>
				<circle fill="#CC9805" cx="201.5" cy="208.7" r="6"></circle>
			</g>
		</g>
		<g>
			<g>
				<circle fill="#CC9805" cx="106.1" cy="260" r="6"></circle>
			</g>
		</g>
	</g>
</g>
</svg>