<svg xmlns="http://www.w3.org/2000/svg" xmlns:xlink="http://www.w3.org/1999/xlink" viewBox="0 0 48 48" version="1.1">
<g id="surface1">
<path style=" fill:#E38939;" d="M 12 40 L 12 8 C 12 5.800781 13.800781 4 16 4 L 32 4 C 34.199219 4 36 5.800781 36 8 L 36 40 C 36 42.199219 34.199219 44 32 44 L 16 44 C 13.800781 44 12 42.199219 12 40 Z "></path>
<path style=" fill:#FFF3E0;" d="M 32 7 L 16 7 C 15.398438 7 15 7.398438 15 8 L 15 37 C 15 37.601563 15.398438 38 16 38 L 32 38 C 32.601563 38 33 37.601563 33 37 L 33 8 C 33 7.398438 32.601563 7 32 7 Z "></path>
<path style=" fill:#A6642A;" d="M 25.5 41 C 25.5 41.828125 24.828125 42.5 24 42.5 C 23.171875 42.5 22.5 41.828125 22.5 41 C 22.5 40.171875 23.171875 39.5 24 39.5 C 24.828125 39.5 25.5 40.171875 25.5 41 Z "></path>
</g>
</svg>