<svg version="1.1" id="Layer_1" xmlns="http://www.w3.org/2000/svg" xmlns:xlink="http://www.w3.org/1999/xlink" x="0px" y="0px" width="512px" height="512px" viewBox="0 0 512 512" enable-background="new 0 0 512 512" xml:space="preserve">
<g>
	<g>
		<g>
			<path fill="#29C183" d="M256,7.9C119,7.9,7.9,119,7.9,256C7.9,393,119,504.1,256,504.1c137,0,248.1-111.1,248.1-248.1
				C504.1,119,393,7.9,256,7.9z"></path>
		</g>
	</g>
	<g>
		<g>
			<g>
				<g>
					<g>
						<path fill="#4D4946" d="M402.6,118.5l-30.1-30.1c-2.2-2.2-5.9-2.2-8.1,0c-2.2,2.2-2.2,5.9,0,8.1l28.4,28.4v223h-16.2V208.6
							c0-3.2-2.6-5.7-5.7-5.7H347c-3.2,0-5.7,2.6-5.7,5.7c0,3.2,2.6,5.7,5.7,5.7h18.1v139.4c0,3.2,2.6,5.7,5.7,5.7h27.7
							c3.2,0,5.7-2.6,5.7-5.7V122.6C404.3,121.1,403.7,119.6,402.6,118.5z"></path>
					</g>
				</g>
				<g>
					<g>
						<path fill="#EA4949" d="M402.6,118.5l-16.2-16.2l-8.1,8.1l14.6,14.6v23.7l11.5,0v-26.1C404.3,121.1,403.7,119.6,402.6,118.5z"></path>
					</g>
				</g>
				<g>
					<g>
						<path fill="#EA4949" d="M390.4,108.4c-2.9-2.9-7.5-2.9-10.4,0l-6,6c-2.9,2.9-2.9,7.5,0,10.4l16.8,16.8c2.9,2.9,7.5,2.9,10.4,0
							l0.4-22L390.4,108.4z"></path>
					</g>
				</g>
			</g>
			<g>
				<g>
					<path fill="#D3CBC5" d="M337.9,90.1H160.2c-7.1,0-12.9,5.8-12.9,12.9v293.7c0,7.1,5.8,12.9,12.9,12.9h177.6
						c7.1,0,12.9-5.8,12.9-12.9V103C350.8,95.9,345,90.1,337.9,90.1z"></path>
				</g>
			</g>
			<g>
				<g>
					<path fill="#E8E8E8" d="M312.9,116H185.3c-5.1,0-9.3,4.1-9.3,9.3v74c0,5.1,4.1,9.3,9.3,9.3h127.6c5.1,0,9.3-4.1,9.3-9.3v-74
						C322.1,120.2,318,116,312.9,116z"></path>
				</g>
			</g>
			<g>
				<g>
					<path fill="#8E8680" d="M205,234.7h-19.8c-5.1,0-9.3,4.1-9.3,9.3v69.4c0,5.1,4.1,9.3,9.3,9.3H205c5.1,0,9.3-4.1,9.3-9.3v-69.4
						C214.3,238.8,210.2,234.7,205,234.7z"></path>
				</g>
			</g>
			<g>
				<g>
					<path fill="#6B6663" d="M200.4,247.6h-10.5c-2.7,0-4.9,2.2-4.9,4.9v52.3c0,2.7,2.2,4.9,4.9,4.9h10.5c2.7,0,4.9-2.2,4.9-4.9
						v-52.3C205.3,249.8,203.1,247.6,200.4,247.6z"></path>
				</g>
			</g>
			<g>
				<g>
					<path fill="#8E8680" d="M260,234.7h-19.8c-5.1,0-9.3,4.1-9.3,9.3v69.4c0,5.1,4.1,9.3,9.3,9.3H260c5.1,0,9.3-4.1,9.3-9.3v-69.4
						C269.2,238.8,265.1,234.7,260,234.7z"></path>
				</g>
			</g>
			<g>
				<g>
					<path fill="#6B6663" d="M255.4,247.6h-10.5c-2.7,0-4.9,2.2-4.9,4.9v52.3c0,2.7,2.2,4.9,4.9,4.9h10.5c2.7,0,4.9-2.2,4.9-4.9
						v-52.3C260.3,249.8,258.1,247.6,255.4,247.6z"></path>
				</g>
			</g>
			<g>
				<g>
					<path fill="#8E8680" d="M313.5,234.7h-19.8c-5.1,0-9.3,4.1-9.3,9.3v69.4c0,5.1,4.1,9.3,9.3,9.3h19.8c5.1,0,9.3-4.1,9.3-9.3
						v-69.4C322.8,238.8,318.7,234.7,313.5,234.7z"></path>
				</g>
			</g>
			<g>
				<g>
					<path fill="#6B6663" d="M308.9,247.6h-10.5c-2.7,0-4.9,2.2-4.9,4.9v52.3c0,2.7,2.2,4.9,4.9,4.9h10.5c2.7,0,4.9-2.2,4.9-4.9
						v-52.3C313.8,249.8,311.6,247.6,308.9,247.6z"></path>
				</g>
			</g>
			<g>
				<g>
					<path fill="#D3CBC5" d="M360.3,391h-222c-7.1,0-12.9,5.8-12.9,12.9c0,7.1,5.8,12.9,12.9,12.9h222c7.1,0,12.9-5.8,12.9-12.9
						C373.2,396.7,367.4,391,360.3,391z"></path>
				</g>
			</g>
			<g>
				<g>
					<path fill="#4D4946" d="M278.1,143.3h-61.6c-2.7,0-4.8,2.2-4.8,4.8s2.2,4.8,4.8,4.8h61.6c2.7,0,4.8-2.2,4.8-4.8
						S280.8,143.3,278.1,143.3z"></path>
				</g>
			</g>
			<g>
				<g>
					<path fill="#4D4946" d="M278.1,166.2h-61.6c-2.7,0-4.8,2.2-4.8,4.8c0,2.7,2.2,4.8,4.8,4.8h61.6c2.7,0,4.8-2.2,4.8-4.8
						C283,168.3,280.8,166.2,278.1,166.2z"></path>
				</g>
			</g>
		</g>
	</g>
</g>
</svg>