<svg version="1.1" id="Layer_1" xmlns="http://www.w3.org/2000/svg" xmlns:xlink="http://www.w3.org/1999/xlink" x="0px" y="0px" width="512px" height="512px" viewBox="0 0 512 512" enable-background="new 0 0 512 512" xml:space="preserve">
<g>
	<g>
		<g>
			<g>
				<g>
					<g>
						<g>
							<g>
								<g>
									<path fill="#FABC3D" d="M504.1,256C504.1,119,393,7.9,256,7.9C119,7.9,7.9,119,7.9,256C7.9,393,119,504.1,256,504.1
										C393,504.1,504.1,393,504.1,256z"></path>
								</g>
							</g>
						</g>
					</g>
				</g>
			</g>
		</g>
	</g>
	<g>
		<g>
			<g>
				<g>
					<g>
						<g>
							<g>
								<g>
									<circle fill="#FFFFFF" cx="256" cy="340.7" r="49.1"></circle>
								</g>
							</g>
						</g>
					</g>
				</g>
			</g>
		</g>
		<g>
			<path fill="#FFFFFF" d="M180,297c20.3-23.3,47.3-36.1,76-36.1c28.7,0,55.7,12.8,76,36.1c0,0,0,0,0,0l16-18.3c0,0,0,0,0,0
				C323.4,250.5,290.7,235,256,235s-67.4,15.5-91.9,43.7c0,0,0,0,0,0L180,297C180,297.1,180,297.1,180,297z"></path>
			<path fill="#FFFFFF" d="M146.5,256.3c29.3-33.6,68.1-52.1,109.5-52.1c41.4,0,80.3,18.5,109.5,52.1c0,0,0,0,0,0l16-18.3
				c0,0,0,0,0,0c-33.5-38.5-78.1-59.7-125.5-59.7c-47.4,0-92,21.2-125.5,59.7c0,0,0,0,0,0L146.5,256.3
				C146.5,256.3,146.5,256.3,146.5,256.3z"></path>
			<path fill="#FFFFFF" d="M113.2,216c38.1-43.8,88.8-67.9,142.8-67.9c53.9,0,104.6,24.1,142.8,67.9c0,0,0,0,0,0l16-18.3
				c0,0,0,0,0,0c-42.4-48.7-98.8-75.5-158.7-75.5c-60,0-116.3,26.8-158.7,75.5c0,0,0,0,0,0L113.2,216C113.2,216,113.2,216,113.2,216
				z"></path>
			<rect x="256" y="384.3" fill="#FFFFFF" width="0" height="0"></rect>
		</g>
	</g>
</g>
</svg>