<svg version="1.1" id="Layer_1" xmlns="http://www.w3.org/2000/svg" xmlns:xlink="http://www.w3.org/1999/xlink" x="0px" y="0px" width="512px" height="512px" viewBox="0 0 512 512" enable-background="new 0 0 512 512" xml:space="preserve">
<g>
	<g>
		<g>
			<path fill="#65A844" d="M7.9,256C7.9,119,119,7.9,256,7.9C393,7.9,504.1,119,504.1,256c0,137-111.1,248.1-248.1,248.1
				C119,504.1,7.9,393,7.9,256z"></path>
		</g>
	</g>
	<g>
		<g>
			<path fill="#FFFFFF" d="M284.4,202.8c0-32.8,0-65.6,0-98.4c0-4-3.3-7.4-7.3-7.4c-32.8,0-65.6,0-98.3,0c-6.5,0-9.8,8-5.2,12.6
				c12.9,12.9,25.8,25.8,38.8,38.8c-21.6,21.6-43.1,43.1-64.7,64.7c-13.4,13.4,7.5,34.1,20.9,20.7c21.5-21.5,43.1-43.1,64.6-64.6
				c12.9,12.9,25.9,25.9,38.8,38.8c2.5,2.5,5.4,2.6,7.8,1.5C282.3,208.6,284.4,206.4,284.4,202.8z"></path>
		</g>
		<g>
			<path fill="#FFFFFF" d="M183.5,386.6c0,6.8-5.5,12.3-12.3,12.3h-48.6c-6.8,0-12.3-5.5-12.3-12.3V303c0-6.8,5.5-12.3,12.3-12.3
				h48.6c6.8,0,12.3,5.5,12.3,12.3V386.6z"></path>
			<path fill="#FFFFFF" d="M285.3,386.6c0,6.8-5.5,12.3-12.3,12.3h-48.6c-6.8,0-12.3-5.5-12.3-12.3V242.3c0-6.8,5.5-12.3,12.3-12.3
				H273c6.8,0,12.3,5.5,12.3,12.3V386.6z"></path>
			<path fill="#FFFFFF" d="M389.8,386.6c0,6.8-5.5,12.3-12.3,12.3h-48.6c-6.8,0-12.3-5.5-12.3-12.3V181.5c0-6.8,5.5-12.3,12.3-12.3
				h48.6c6.8,0,12.3,5.5,12.3,12.3V386.6z"></path>
		</g>
	</g>
</g>
</svg>