<svg xmlns="http://www.w3.org/2000/svg" xmlns:xlink="http://www.w3.org/1999/xlink" viewBox="0 0 48 48" version="1.1">
<g id="surface1">
<path style=" fill:#4CAF50;" d="M 43 24 C 43 34.492188 34.492188 43 24 43 C 13.507813 43 5 34.492188 5 24 C 5 13.507813 13.507813 5 24 5 C 34.492188 5 43 13.507813 43 24 Z "></path>
<path style=" fill:#FFCC80;" d="M 16.601563 18.800781 L 22.199219 21.601563 L 24 18.398438 C 24.898438 16.800781 25.398438 14.898438 25.398438 13 L 25.398438 12.101563 C 25.398438 10.898438 24.398438 9.898438 23.199219 9.898438 L 22.699219 9.898438 C 22.300781 9.898438 22 10.199219 21.898438 10.601563 L 21.398438 12.601563 C 21.199219 13.5 20.699219 14.300781 20.101563 15 Z "></path>
<path style=" fill:#FFCC80;" d="M 29.800781 34 C 29.101563 34 19 34 19 34 C 16.800781 34 15 32.199219 15 30 L 15 22 C 15 19.800781 16.800781 18 19 18 L 32 18 C 33.101563 18 34 18.898438 34 20 C 34 21.101563 33.5 21.5 33.5 22 C 33.5 22.5 34 22.898438 34 24 C 34 25.101563 33.199219 25.800781 33.101563 26.300781 C 32.898438 26.898438 33.199219 27.898438 32.898438 28.601563 C 32.601563 29.300781 32 29.699219 31.898438 30.398438 C 31.800781 31.101563 32.199219 31.898438 31.898438 32.699219 C 31.5 33.300781 30.800781 34 29.800781 34 Z "></path>
</g>
</svg>